<?xml version="1.0" standalone="no"?><!-- Generator: Gravit.io --><svg xmlns="http://www.w3.org/2000/svg" xmlns:xlink="http://www.w3.org/1999/xlink" style="isolation:isolate" viewBox="0 0 66 48.4" width="66" height="48.4"><defs><clipPath id="_clipPath_XMuSSqE5ZxD0II1wFOlQX4LHZu6oOhaQ"><rect width="66" height="48.4"/></clipPath></defs><g clip-path="url(#_clipPath_XMuSSqE5ZxD0II1wFOlQX4LHZu6oOhaQ)"><g><path d=" M 24.8 25.8 C 24.8 25.8 24.8 25.8 24.8 25.8 L 22.2 18.1 C 22.1 17.7 21.7 17.4 21.3 17.4 C 20.9 17.4 20.5 17.7 20.4 18.1 L 17.8 25.8 C 17.8 25.8 17.8 25.8 17.8 25.8 L 16.5 29.8 C 16.3 30.3 16.6 30.9 17.1 31 C 17.6 31.2 18.2 30.9 18.3 30.4 L 19.4 27.2 L 23.2 27.2 L 24.3 30.4 C 24.4 30.8 24.8 31.1 25.2 31.1 C 25.3 31.1 25.4 31.1 25.5 31 C 26 30.8 26.3 30.3 26.1 29.8 L 24.8 25.8 L 24.8 25.8 Z  M 20.1 25.2 L 21.3 21.5 L 22.5 25.2 L 20.1 25.2 L 20.1 25.2 Z " fill="rgb(185,185,185)"/><path d=" M 43.7 17.4 C 41.6 17.4 39.8 19.1 39.8 21.3 C 39.8 23.4 41.5 25.2 43.7 25.2 L 45.6 25.2 C 46.7 25.2 47.5 26.1 47.5 27.1 C 47.5 28.2 46.6 29 45.6 29 L 40.7 29 C 40.2 29 39.7 29.4 39.7 30 C 39.7 30.5 40.1 31 40.7 31 L 45.6 31 C 47.7 31 49.5 29.3 49.5 27.1 C 49.5 25 47.8 23.2 45.6 23.2 L 43.7 23.2 C 42.6 23.2 41.8 22.3 41.8 21.3 C 41.8 20.2 42.7 19.4 43.7 19.4 L 48.6 19.4 C 49.1 19.4 49.6 19 49.6 18.4 C 49.6 17.9 49.2 17.4 48.6 17.4 L 43.7 17.4 L 43.7 17.4 Z " fill="rgb(185,185,185)"/><path d=" M 37.9 21.3 C 37.9 19.2 36.2 17.4 34 17.4 L 29.1 17.4 C 28.6 17.4 28.1 17.8 28.1 18.4 L 28.1 30.1 C 28.1 30.6 28.5 31.1 29.1 31.1 L 34 31.1 C 36.1 31.1 37.9 29.4 37.9 27.2 C 37.9 26 37.4 25 36.6 24.3 C 37.3 23.5 37.9 22.5 37.9 21.3 L 37.9 21.3 L 37.9 21.3 Z  M 34 29.1 L 30.1 29.1 L 30.1 25.2 L 34 25.2 C 35.1 25.2 35.9 26.1 35.9 27.1 C 35.9 28.2 35 29.1 34 29.1 L 34 29.1 L 34 29.1 Z  M 34 23.2 L 30.1 23.2 L 30.1 19.3 L 34 19.3 C 35.1 19.3 35.9 20.2 35.9 21.2 C 35.9 22.4 35 23.2 34 23.2 L 34 23.2 L 34 23.2 Z " fill="rgb(185,185,185)"/></g><path d=" M 33 0 C 19.7 0 8.8 10.9 8.8 24.2 C 8.8 37.5 19.7 48.4 33 48.4 C 46.3 48.4 57.2 37.5 57.2 24.2 C 57.2 10.9 46.3 0 33 0 L 33 0 L 33 0 Z  M 33 46.2 C 20.9 46.2 11 36.3 11 24.2 C 11 12.1 20.9 2.2 33 2.2 C 45.1 2.2 55 12.1 55 24.2 C 55 36.3 45.1 46.2 33 46.2 L 33 46.2 L 33 46.2 Z " fill="rgb(185,185,185)"/><path d=" M 11.2 2.4 C 11.6 2 11.6 1.3 11.2 0.9 C 10.8 0.5 10.1 0.5 9.7 0.9 C -3.2 13.8 -3.2 34.7 9.7 47.6 C 9.9 47.8 10.1 47.9 10.5 47.9 C 10.8 47.9 11.1 47.8 11.3 47.6 C 11.7 47.2 11.7 46.5 11.3 46.1 C -0.8 34 -0.8 14.4 11.2 2.4 L 11.2 2.4 L 11.2 2.4 Z " fill="rgb(185,185,185)"/><path d=" M 56.3 0.9 C 55.9 0.5 55.2 0.5 54.8 0.9 C 54.4 1.3 54.4 2 54.8 2.4 C 66.8 14.4 66.8 34 54.8 46 C 54.4 46.4 54.4 47.1 54.8 47.5 C 55 47.7 55.2 47.8 55.6 47.8 C 55.9 47.8 56.2 47.7 56.4 47.5 C 69.2 34.7 69.2 13.8 56.3 0.9 L 56.3 0.9 L 56.3 0.9 Z " fill="rgb(185,185,185)"/></g></svg>