<?xml version="1.0" standalone="no"?><!-- Generator: Gravit.io --><svg xmlns="http://www.w3.org/2000/svg" xmlns:xlink="http://www.w3.org/1999/xlink" style="isolation:isolate" viewBox="0 0 56.6 49.5" width="56.6" height="49.5"><defs><clipPath id="_clipPath_oMb5T6UGzHdbh92RLqYXqda697yKO51u"><rect width="56.6" height="49.5"/></clipPath></defs><g clip-path="url(#_clipPath_oMb5T6UGzHdbh92RLqYXqda697yKO51u)"><path d=" M 48.9 5.5 L 48.9 0 L 37.4 0 L 37.4 5.5 L 20.9 5.5 L 20.9 0 L 9.5 0 L 9.5 5.5 L 0 5.5 L 0 48.1 L 56.6 48.1 L 56.6 5.5 L 48.9 5.5 L 48.9 5.5 Z  M 39.7 2.3 L 46.5 2.3 L 46.5 4.8 L 39.7 4.8 L 39.7 2.3 L 39.7 2.3 Z  M 11.8 2.3 L 18.6 2.3 L 18.6 4.8 L 11.8 4.8 L 11.8 2.3 L 11.8 2.3 Z  M 54.3 45.8 L 2.3 45.8 L 2.3 7.8 L 54.2 7.8 L 54.2 45.8 L 54.3 45.8 Z " fill="rgb(255,255,0)"/><rect x="38.6" y="19.1" width="9.2" height="2.3" transform="matrix(1,0,0,1,0,0)" fill="rgb(255,255,0)"/><path d=" M 14 24.8 L 16.3 24.8 L 16.3 21.4 L 19.7 21.4 L 19.7 19.1 L 16.3 19.1 L 16.3 15.7 L 14 15.7 L 14 19.1 L 10.6 19.1 L 10.6 21.4 L 14 21.4 L 14 24.8 L 14 24.8 Z " fill="rgb(255,255,0)"/></g></svg>