<?xml version="1.0" encoding="UTF-8" standalone="no"?>
<svg
   xmlns:dc="http://purl.org/dc/elements/1.1/"
   xmlns:cc="http://creativecommons.org/ns#"
   xmlns:rdf="http://www.w3.org/1999/02/22-rdf-syntax-ns#"
   xmlns:svg="http://www.w3.org/2000/svg"
   xmlns="http://www.w3.org/2000/svg"
   xmlns:sodipodi="http://sodipodi.sourceforge.net/DTD/sodipodi-0.dtd"
   xmlns:inkscape="http://www.inkscape.org/namespaces/inkscape"
   id="Layer_1"
   data-name="Layer 1"
   viewBox="0 0 64 64"
   version="1.1"
   sodipodi:docname="CruiseControl_green.svg"
   inkscape:version="0.92.4 (unknown)">
  <metadata
     id="metadata17">
    <rdf:RDF>
      <cc:Work
         rdf:about="">
        <dc:format>image/svg+xml</dc:format>
        <dc:type
           rdf:resource="http://purl.org/dc/dcmitype/StillImage" />
        <dc:title>AGL-new-icons-2</dc:title>
      </cc:Work>
    </rdf:RDF>
  </metadata>
  <sodipodi:namedview
     pagecolor="#ffffff"
     bordercolor="#666666"
     borderopacity="1"
     objecttolerance="10"
     gridtolerance="10"
     guidetolerance="10"
     inkscape:pageopacity="0"
     inkscape:pageshadow="2"
     inkscape:window-width="1349"
     inkscape:window-height="832"
     id="namedview15"
     showgrid="false"
     inkscape:zoom="3.6875"
     inkscape:cx="32.542373"
     inkscape:cy="32"
     inkscape:window-x="0"
     inkscape:window-y="27"
     inkscape:window-maximized="0"
     inkscape:current-layer="Layer_1" />
  <defs
     id="defs4">
    <style
       id="style2">.cls-1{fill:#666;}.cls-2{fill:#fff;}</style>
  </defs>
  <title
     id="title6">AGL-new-icons-2</title>
  <path
     class="cls-1"
     d="M35.05031,43.25743a4.86566,4.86566,0,0,0,4.9216-4.8792,4.89193,4.89193,0,1,0-9.78384-.02387A4.87784,4.87784,0,0,0,35.05031,43.25743Z"
     id="path8"
     style="fill:#00ff00;fill-opacity:1" />
  <path
     class="cls-2"
     d="M35.05031,43.25743a4.86566,4.86566,0,0,0,4.9216-4.8792,4.89193,4.89193,0,1,0-9.78384-.02387A4.87784,4.87784,0,0,0,35.05031,43.25743Z"
     id="path10"
     style="fill:#00ff00;fill-opacity:1" />
  <path
     class="cls-1"
     d="M27.87548,33.70618c.13343.14052.11688.25454.01746.42343a8.06825,8.06825,0,0,0-1.12477,3.39684,8.17582,8.17582,0,0,0,2.00677,6.32238,8.37807,8.37807,0,0,0,4.35395,2.65547,7.82029,7.82029,0,0,0,3.155.12031,8.33976,8.33976,0,0,0,5.28357-13.43835,8.42189,8.42189,0,0,0-2.74735-2.23677,7.46105,7.46105,0,0,0-2.81734-.85166,7.82757,7.82757,0,0,0-5.15033,1.12191.43962.43962,0,0,1-.664-.0995c-.15116-.18584-.33018-.34916-.49823-.5211q-1.41491-1.44748-2.83-2.8948c-.63528-.65209-1.2624-1.31211-1.89931-1.96259-.99161-1.01266-1.99023-2.01837-2.98238-3.03049-.78757-.80339-1.556-1.62627-2.36322-2.40927-.234-.227-.20739-.37505-.00782-.542a22.63476,22.63476,0,0,1,3.497-2.419,25.79691,25.79691,0,0,1,2.85593-1.374A23.451,23.451,0,0,1,32.4996,14.38c.32107-.03221.46171.06283.45122.41425-.02241.75071-.01185,1.50256-.00736,2.25392a1.58217,1.58217,0,0,0,.43933,1.0926,1.81759,1.81759,0,0,0,1.95169.46845,1.74,1.74,0,0,0,1.07841-1.64526c.00385-.73794.00523-1.476-.00793-2.21378-.00491-.27494.08864-.4049.37265-.37246.1064.01216.215.005.32141.017a23.21351,23.21351,0,0,1,9.877,3.37847,24.63078,24.63078,0,0,1,2.67884,1.913c.24647.20465.28352.356.02074.59765-.52285.48088-1.02134.98951-1.51251,1.50329a1.7268,1.7268,0,0,0,.10636,2.62589,1.76026,1.76026,0,0,0,2.46265-.2481c.48739-.47909.96526-.9679,1.44549-1.45423.14144-.14322.27693-.286.44752-.03637l1.66234,2.25908-.00126-.00042.08418.164-.00679-.00576.0716.06211.0974.142.05631.10179.035.09717a.14307.14307,0,0,1,.10262.1443l.04606.10937a.47152.47152,0,0,1,.21295.31169.03358.03358,0,0,1,.0263.0358l.06031.109.02261.08837.09881.14708a18.19777,18.19777,0,0,1,1.6612,3.637A23.49559,23.49559,0,0,1,58.05005,35.557c.03317.3184-.05413.44283-.377.437-.69673-.0127-1.3938-.00846-2.09076-.00728a1.755,1.755,0,1,0-.10332,3.50549c.71008.013,1.42065-.003,2.131-.002.18181.00027.43037-.02981.42229.23373a7.63647,7.63647,0,0,1-.29156,2.12633,14.05945,14.05945,0,0,1-.86916,3.39223l-.01415.08276a13.17565,13.17565,0,0,1-1.18367,2.78738,2.03425,2.03425,0,0,1-.353.7554,22.85421,22.85421,0,0,1-2.58689,3.84143c-.22184.2688-.38188.24856-.60551.01182-.42121-.446-.87945-.85761-1.29087-1.312a2.07186,2.07186,0,0,0-1.61842-.74217l-.78338.27654a1.75,1.75,0,0,0-.30216,2.68764c1.16831,1.183,2.35114,2.35152,3.52345,3.53051a1.87872,1.87872,0,0,0,2.94993-.03687,28.13123,28.13123,0,0,0,3.86842-4.962A27.57384,27.57384,0,0,0,61.041,46.63479a28.38262,28.38262,0,0,0,1.24463-12.45,27.29151,27.29151,0,0,0-1.80156-6.856A29.60616,29.60616,0,0,0,57.953,22.50037c-.51294-.79882-1.13026-1.52155-1.63066-2.32731-.128-.137-.26072-.27-.38336-.41169a28.32566,28.32566,0,0,0-6.32108-5.49355A27.86082,27.86082,0,0,0,24.77675,11.743c-1.20563.45538-2.3498,1.04075-3.50945,1.59456-.73162.46254-1.47066.91388-2.19324,1.3901a24.21179,24.21179,0,0,0-3.46016,2.78322c-.091.0875-.16973.21143-.35733.21894a5.57224,5.57224,0,0,0,.09706-1.94387c-.00995-2.33151-.02661-4.663-.03065-6.99448a6.03992,6.03992,0,0,1-.01452-1.35278c-.25077-.34677-.47615-.36457-.81041-.04567-.29061.27726-.56864.56772-.85315.85139a1.12665,1.12665,0,0,1-1.86435.01994Q9.92642,6.42125,8.07487,4.57555a.9829.9829,0,0,0-1.40108-.14814,4.77373,4.77373,0,0,0-.79463.73413c-1.32987,1.32182-2.64377,2.66-3.98748,3.9675a1.24555,1.24555,0,0,0-.00739,1.80629C3.14062,12.12315,4.324,13.388,5.57635,14.5802a1.136,1.136,0,0,1,.02593,1.69207c-.34242.33956-.67283.69143-1.00373,1.04239-.28268.29972-.26168.48335.07418.7549q1.58561.01881,3.1712.03767c1.82291.02154,3.64582.05173,5.46881.05913a3.45561,3.45561,0,0,0,1.61461-.148c.03652.18066-.067.24193-.13839.31314a27.06844,27.06844,0,0,0-4.05762,5.26874c-.0687.11418-.14895.22142-.22359.33125-.05581.12-.10473.24444-.169.36041A26.9253,26.9253,0,0,0,8.88769,27.3392,27.73505,27.73505,0,0,0,13.154,55.32546a12.98283,12.98283,0,0,0,2.4832,2.55765,2.12269,2.12269,0,0,0,1.56981-.31592,14.07163,14.07163,0,0,0,1.72963-1.61229c.15634-.14383.00461-.26521-.0891-.375-.66851-.78331-1.3328-1.57031-2.00773-2.34805a22.98006,22.98006,0,0,1-4.66278-8.71141,26.20353,26.20353,0,0,1-.87038-4.65462c-.03068-.289.065-.37757.35035-.37349.73733.01052,1.47508-.00179,2.21256-.01262a1.74435,1.74435,0,1,0-.04769-3.48536q-1.08621-.01573-2.17272-.0021c-.28958.004-.37555-.11749-.34513-.39022a26.118,26.118,0,0,1,.575-3.405,23.29036,23.29036,0,0,1,4.77429-9.46251c.18173-.21729.24951-.16568.41069.00241.90675.94555,1.8249,1.88021,2.74144,2.81635m4.78222,4.46938,10.545,3.45006a4.92774,4.92774,0,0,1,4.83921,4.90548,4.89193,4.89193,0,0,1-9.78384-.02387A4.91464,4.91464,0,0,1,35.1327,33.47275Z"
     id="path12"
     style="fill:#00ff00;fill-opacity:1" />
</svg>
