<?xml version="1.0" standalone="no"?><!-- Generator: Gravit.io --><svg xmlns="http://www.w3.org/2000/svg" xmlns:xlink="http://www.w3.org/1999/xlink" style="isolation:isolate" viewBox="0 0 66 44" width="66" height="44"><defs><clipPath id="_clipPath_LgXIhoy2HTurPEQ1ccqC0HB9CGJq3sky"><rect width="66" height="44"/></clipPath></defs><g clip-path="url(#_clipPath_LgXIhoy2HTurPEQ1ccqC0HB9CGJq3sky)"><path d=" M 64.9 13.2 L 60.5 13.2 C 60.1 13.2 59.6 13.5 59.5 14 L 56.4 23.1 L 53.4 23.1 L 50.4 18.1 C 50.2 17.8 49.8 17.5 49.4 17.5 L 45 17.5 L 45 14.2 C 45 13.5 44.6 13.1 43.9 13.1 L 36.2 13.1 L 36.2 8.8 L 39.5 8.8 C 40.2 8.8 40.6 8.4 40.6 7.7 L 40.6 1.1 C 40.6 0.4 40.2 0 39.5 0 L 19.8 0 C 19.1 0 18.7 0.4 18.7 1.1 L 18.7 7.7 C 18.7 8.4 19.1 8.8 19.8 8.8 L 23.1 8.8 L 23.1 13.2 L 14.3 13.2 C 14 13.2 13.7 13.3 13.5 13.5 C 13.3 13.7 13.2 13.9 13.2 14.3 L 13.2 17.6 L 5.5 17.6 C 4.8 17.6 4.4 18 4.4 18.7 L 4.4 25.3 L 2.2 25.3 L 2.2 22 C 2.2 21.3 1.8 20.9 1.1 20.9 C 0.4 20.9 0 21.3 0 22 L 0 30.8 C 0 31.5 0.4 31.9 1.1 31.9 C 1.8 31.9 2.2 31.5 2.2 30.8 L 2.2 27.5 L 4.4 27.5 L 4.4 36.3 C 4.4 37 4.8 37.4 5.5 37.4 L 13.8 37.4 L 17.9 43.6 C 18.1 43.8 18.5 44 18.8 44 L 49.6 44 C 50 44 50.4 43.8 50.6 43.3 L 53.6 37.4 L 56.7 37.4 L 59.7 43.3 C 59.9 43.7 60.2 44 60.7 44 L 65.1 44 C 65.8 44 66.2 43.6 66.2 42.9 L 66.2 14.3 C 66 13.6 65.6 13.2 64.9 13.2 L 64.9 13.2 L 64.9 13.2 Z  M 20.9 2.2 L 38.5 2.2 L 38.5 6.6 L 20.9 6.6 L 20.9 2.2 L 20.9 2.2 Z  M 25.3 8.8 L 34.1 8.8 L 34.1 13.2 L 25.3 13.2 L 25.3 8.8 L 25.3 8.8 Z  M 6.6 35.2 L 6.6 19.8 L 13.2 19.8 L 13.2 35.2 L 6.6 35.2 L 6.6 35.2 Z  M 48.7 41.8 L 19.3 41.8 L 15.4 36 L 15.4 15.4 L 42.9 15.4 L 42.9 18.7 C 42.9 19.4 43.3 19.8 44 19.8 L 48.8 19.8 L 51.7 24.6 L 51.7 35.9 L 48.7 41.8 L 48.7 41.8 Z  M 53.9 35.2 L 53.9 25.3 L 56.1 25.3 L 56.1 35.2 L 53.9 35.2 L 53.9 35.2 Z  M 63.8 41.8 L 61.2 41.8 L 58.3 36.3 L 58.3 24.2 L 61.3 15.4 L 63.8 15.4 L 63.8 41.8 L 63.8 41.8 Z " fill="rgb(255,0,0)"/></g></svg>