<?xml version="1.0" standalone="no"?><!-- Generator: Gravit.io --><svg xmlns="http://www.w3.org/2000/svg" xmlns:xlink="http://www.w3.org/1999/xlink" style="isolation:isolate" viewBox="0 0 66.3 46.4" width="66.3" height="46.4"><defs><clipPath id="_clipPath_0BT6rWmesBevrO1pNR1gU7iPAvJDB4go"><rect width="66.3" height="46.4"/></clipPath></defs><g clip-path="url(#_clipPath_0BT6rWmesBevrO1pNR1gU7iPAvJDB4go)"><path d=" M 33.2 46.4 L 33.3 46.4 C 44.1 46.4 54.3 42.6 60.4 36.6 C 64.3 32.6 66.4 28.1 66.4 23.2 C 66.4 10.5 51.5 0 33.2 0 C 32.8 0 32.2 0.3 32.1 0.8 C 27.7 15.5 27.7 30.9 32.1 45.6 C 32.3 46.1 32.7 46.4 33.2 46.4 L 33.2 46.4 Z  M 33.9 2.1 C 50.7 2.4 64.1 11.7 64.1 23.1 C 64.1 27.3 62.2 31.4 58.7 34.9 C 53.1 40.6 43.8 44.1 33.9 44.2 C 30 30.4 30 15.9 33.9 2.1 L 33.9 2.1 Z " fill="rgb(255,0,0)"/><path d=" M 1.2 29.8 L 25.4 29.8 C 26.1 29.8 26.5 29.4 26.5 28.7 C 26.5 28 26.1 27.6 25.4 27.6 L 1.1 27.6 C 0.4 27.6 0 28 0 28.7 C 0.1 29.4 0.5 29.8 1.2 29.8 L 1.2 29.8 Z " fill="rgb(255,0,0)"/><path d=" M 1.2 18.8 L 25.4 18.8 C 26.1 18.8 26.5 18.4 26.5 17.7 C 26.5 17 26.1 16.6 25.4 16.6 L 1.1 16.6 C 0.4 16.6 0 17 0 17.7 C 0.1 18.4 0.5 18.8 1.2 18.8 L 1.2 18.8 Z " fill="rgb(255,0,0)"/><path d=" M 1.2 7.8 L 25.4 7.8 C 26.1 7.8 26.5 7.4 26.5 6.7 C 26.5 6 26.1 5.6 25.4 5.6 L 1.1 5.6 C 0.4 5.6 0 6 0 6.7 C 0.1 7.3 0.5 7.8 1.2 7.8 L 1.2 7.8 Z " fill="rgb(255,0,0)"/><path d=" M 25.4 38.7 L 1.1 38.7 C 0.4 38.7 0 39.1 0 39.8 C 0 40.5 0.4 40.9 1.1 40.9 L 25.4 40.9 C 26.1 40.9 26.5 40.5 26.5 39.8 C 26.6 39.1 26.1 38.7 25.4 38.7 L 25.4 38.7 Z " fill="rgb(255,0,0)"/></g></svg>