<?xml version="1.0" standalone="no"?><!-- Generator: Gravit.io --><svg xmlns="http://www.w3.org/2000/svg" xmlns:xlink="http://www.w3.org/1999/xlink" style="isolation:isolate" viewBox="0 0 66.3 46.4" width="66.3" height="46.4"><defs><clipPath id="_clipPath_Jxs11Y80GjqqNaOgOFZEpBDkbMVbtcRk"><rect width="66.3" height="46.4"/></clipPath></defs><g clip-path="url(#_clipPath_Jxs11Y80GjqqNaOgOFZEpBDkbMVbtcRk)"><path d=" M 33.1 0 L 33.2 0 C 44 0 54.2 3.8 60.3 9.8 C 64.2 13.8 66.3 18.3 66.3 23.2 C 66.3 35.9 51.4 46.4 33.1 46.4 C 32.7 46.4 32.1 46.1 32 45.6 C 27.6 30.9 27.6 15.5 32 0.8 C 32.2 0.3 32.6 0 33.1 0 Z  M 33.8 44.3 C 50.6 44 64 34.7 64 23.3 C 64 19.1 62.1 15 58.6 11.5 C 53 5.8 43.7 2.3 33.8 2.2 C 29.9 16 29.9 30.5 33.8 44.3 Z " fill="rgb(185,185,185)"/><path d=" M 1.2 16.6 L 25.4 16.6 C 26.1 16.6 26.5 17 26.5 17.7 C 26.5 18.4 26.1 18.8 25.4 18.8 L 1.1 18.8 C 0.4 18.8 0 18.4 0 17.7 C 0.1 17 0.5 16.6 1.2 16.6 L 1.2 16.6 Z " fill="rgb(185,185,185)"/><path d=" M 1.2 27.6 L 25.4 27.6 C 26.1 27.6 26.5 28 26.5 28.7 C 26.5 29.4 26.1 29.8 25.4 29.8 L 1.1 29.8 C 0.4 29.8 0 29.4 0 28.7 C 0.1 28 0.5 27.6 1.2 27.6 L 1.2 27.6 Z " fill="rgb(185,185,185)"/><path d=" M 1.213 38.8 L 25.413 38.8 C 26.113 38.8 26.513 39.2 26.513 39.9 C 26.513 40.6 26.113 41 25.413 41 L 1.113 41 C 0.413 41 0.013 40.6 0.013 39.9 C 0.113 39.3 0.513 38.8 1.213 38.8 L 1.213 38.8 Z " fill="rgb(185,185,185)"/><path d=" M 25.4 7.7 L 1.1 7.7 C 0.4 7.7 0 7.3 0 6.6 C 0 5.9 0.4 5.5 1.1 5.5 L 25.4 5.5 C 26.1 5.5 26.5 5.9 26.5 6.6 C 26.6 7.3 26.1 7.7 25.4 7.7 Z " fill="rgb(185,185,185)"/></g></svg>