<?xml version="1.0" standalone="no"?><!-- Generator: Gravit.io --><svg xmlns="http://www.w3.org/2000/svg" xmlns:xlink="http://www.w3.org/1999/xlink" style="isolation:isolate" viewBox="0 0 70.7 28.2" width="70.7" height="28.2"><defs><clipPath id="_clipPath_hTT0u5fNUM4AGeXRjZpPDCv0UhYBJG0G"><rect width="70.7" height="28.2"/></clipPath></defs><g clip-path="url(#_clipPath_hTT0u5fNUM4AGeXRjZpPDCv0UhYBJG0G)"><path d=" M 63.5 5.1 L 65.1 6.7 C 65.6 7.2 66.3 7.2 66.7 6.7 C 67.2 6.2 67.2 5.5 66.7 5.1 L 64.3 2.7 C 63.8 2.3 63.2 2.2 62.8 2.6 L 59.3 5 L 41.3 16.2 L 36.1 10 C 35.9 9.6 35.5 9.5 35.2 9.5 L 23.5 9.5 L 23.5 5.9 L 25.9 5.9 C 26.6 5.9 27.1 5.4 27.1 4.7 C 27.1 4 26.6 3.5 25.9 3.5 L 18.8 3.5 C 18.1 3.5 17.6 4 17.6 4.7 C 17.6 5.4 18.1 5.9 18.8 5.9 L 21.2 5.9 L 21.2 9.4 L 11.8 9.4 L 11.8 5.9 C 11.8 5.5 11.6 5.2 11.3 5 L 4.2 0.2 C 3.9 0 3.5 0 3.2 0 C 2.8 0.1 2.6 0.4 2.4 0.7 L 0.1 6.6 C -0.1 7.1 0.1 7.7 0.6 8 L 9.4 13.5 L 9.4 27 C 9.4 27.7 9.9 28.2 10.6 28.2 L 45.9 28.2 C 46.3 28.2 46.6 28 46.8 27.8 L 60.9 6.8 L 63.5 5.1 L 63.5 5.1 Z  M 2.6 6.6 L 4.1 3 L 9.4 6.5 L 9.4 10.9 L 2.6 6.6 L 2.6 6.6 Z  M 45.3 25.9 L 11.7 25.9 L 11.7 11.8 L 34.6 11.8 L 40.1 18.4 C 40.5 18.9 41.2 19 41.6 18.6 L 56 9.8 L 45.3 25.9 L 45.3 25.9 Z " fill="rgb(185,185,185)"/><path d=" M 70.1 20.2 L 69.7 19.6 C 69.1 18.8 68.6 18.1 68.3 17.2 L 67 14.8 C 66.5 14 65.2 14 64.9 14.8 L 63.8 16.8 C 63.3 17.9 62.7 18.9 62 19.9 C 61.5 20.5 61.2 21.2 61.2 22 C 61 24.4 62.6 26.5 64.8 26.9 C 65 27 65.4 27 65.7 27 C 66.8 27 67.8 26.6 68.8 25.9 C 70 25 70.6 23.7 70.6 22.3 C 70.7 21.5 70.4 20.8 70.1 20.2 L 70.1 20.2 L 70.1 20.2 Z  M 67.4 24.1 C 66.8 24.6 66.1 24.7 65.4 24.6 C 64.2 24.4 63.4 23.3 63.5 22.1 C 63.5 21.7 63.6 21.5 63.9 21.3 C 64.7 20.2 65.3 19.1 65.9 17.9 L 66.1 18.3 C 66.6 19.2 67.2 20.1 67.6 20.9 L 68 21.5 C 68.1 21.7 68.2 22 68.2 22.3 C 68.2 23.1 68 23.6 67.4 24.1 L 67.4 24.1 L 67.4 24.1 Z " fill="rgb(185,185,185)"/></g></svg>