<?xml version="1.0" standalone="no"?><!-- Generator: Gravit.io --><svg xmlns="http://www.w3.org/2000/svg" xmlns:xlink="http://www.w3.org/1999/xlink" style="isolation:isolate" viewBox="0 0 51.4 59.1" width="51.4" height="59.1"><defs><clipPath id="_clipPath_ixto9piCHyZsnZA3G4zZIiKRd0KPfFYG"><rect width="51.4" height="59.1"/></clipPath></defs><g clip-path="url(#_clipPath_ixto9piCHyZsnZA3G4zZIiKRd0KPfFYG)"><path d=" M 36 9.8 C 31.4 8.4 19.8 8.4 15.6 9.8 C 15.1 9.9 14.9 10.3 14.9 10.8 L 15.9 21.7 C 15.9 22 16.1 22.2 16.3 22.4 C 16.5 22.6 16.8 22.7 17.1 22.6 C 22.1 21.3 29.3 21.3 34.4 22.6 L 34.6 22.6 C 34.8 22.6 35 22.5 35.3 22.4 C 35.5 22.3 35.7 22 35.7 21.7 L 36.7 10.8 C 36.8 10.4 36.5 9.9 36 9.8 L 36 9.8 L 36 9.8 Z  M 33.7 20.4 C 31.2 19.9 28.5 19.6 25.7 19.6 C 22.9 19.6 20.1 19.9 17.6 20.4 L 16.8 11.5 C 21 10.5 30 10.5 34.5 11.5 L 33.7 20.4 L 33.7 20.4 Z " fill="rgb(255,255,0)"/><path d=" M 33.6 42.3 L 17.8 42.3 C 16.1 42.3 14.8 43.6 14.8 45.3 L 14.8 52.2 C 14.8 52.7 15.1 53.1 15.6 53.2 C 19 53.9 22.3 54.2 25.7 54.2 C 29.1 54.2 32.4 53.9 35.8 53.2 C 36.3 53.1 36.6 52.7 36.6 52.2 L 36.6 45.3 C 36.6 43.6 35.3 42.3 33.6 42.3 L 33.6 42.3 L 33.6 42.3 Z  M 34.6 51.4 C 28.7 52.5 22.7 52.5 16.8 51.4 L 16.8 45.3 C 16.8 44.7 17.2 44.3 17.8 44.3 L 33.6 44.3 C 34.2 44.3 34.6 44.7 34.6 45.3 L 34.6 51.4 L 34.6 51.4 Z " fill="rgb(255,255,0)"/><path d=" M 49.9 34.2 C 50 34.3 50.2 34.4 50.4 34.4 C 50.6 34.4 50.7 34.4 50.9 34.2 C 51.2 34 51.4 33.7 51.4 33.3 L 51.4 28.4 C 51.4 28.1 51.2 27.8 50.9 27.6 L 40.5 21 L 40.5 10.6 C 40.5 7.9 40.2 5.7 39.5 2.8 C 39.4 2.4 39.1 2.1 38.7 2.1 L 32.5 0.7 C 28 -0.3 23.2 -0.3 18.8 0.7 L 12.6 2.1 C 12.3 2.2 12 2.4 11.9 2.8 C 11.2 5.7 10.9 7.9 10.9 10.6 L 10.9 20.1 L 0.5 26.7 C 0.2 26.8 0 27.2 0 27.5 L 0 32.4 C 0 32.8 0.2 33.1 0.5 33.3 C 0.7 33.4 0.8 33.4 1 33.4 C 1.2 33.4 1.4 33.3 1.5 33.3 L 10.9 27.3 L 10.9 35.9 L 0.5 42.5 C 0.2 42.6 0 43 0 43.3 L 0 48.2 C 0 48.6 0.2 48.9 0.5 49.1 C 0.7 49.2 0.8 49.2 1 49.2 C 1.2 49.2 1.4 49.1 1.5 49.1 L 10.9 43.1 L 10.9 56.1 C 10.9 57.8 12.2 59.1 13.9 59.1 L 37.6 59.1 C 39.3 59.1 40.6 57.8 40.6 56.1 L 40.6 43.1 L 50 49.1 C 50.1 49.2 50.3 49.3 50.5 49.3 C 50.7 49.3 50.8 49.3 51 49.1 C 51.3 48.9 51.5 48.6 51.5 48.2 L 51.5 43.3 C 51.5 43 51.3 42.7 51 42.5 L 40.6 35.9 L 40.6 28.3 L 49.9 34.2 L 49.9 34.2 Z  M 49.4 29.1 L 49.4 31.7 L 40.5 26 L 40.5 23.4 L 49.4 29.1 L 49.4 29.1 Z  M 2 30.6 L 2 28 L 10.9 22.4 L 10.9 25 L 2 30.6 L 2 30.6 Z  M 2 46.4 L 2 43.8 L 10.9 38.2 L 10.9 40.8 L 2 46.4 L 2 46.4 Z  M 38.5 56.2 C 38.5 56.8 38.1 57.2 37.5 57.2 L 13.8 57.2 C 13.2 57.2 12.8 56.8 12.8 56.2 L 12.8 10.6 C 12.8 8.2 13 6.3 13.6 3.9 L 19.2 2.6 C 23.4 1.6 27.9 1.6 32 2.6 L 37.6 3.9 C 38.2 6.3 38.4 8.3 38.4 10.6 L 38.4 56.2 L 38.5 56.2 Z  M 49.4 43.9 L 49.4 46.5 L 40.5 40.9 L 40.5 38.3 L 49.4 43.9 L 49.4 43.9 Z " fill="rgb(255,255,0)"/><path d=" M 36 25.6 C 35.7 25.4 35.3 25.5 35 25.7 L 31 28.7 C 30.7 28.9 30.6 29.2 30.6 29.5 L 30.6 38.4 C 30.6 39 31 39.4 31.6 39.4 L 35.6 39.4 C 36.2 39.4 36.6 39 36.6 38.4 L 36.6 26.5 C 36.6 26.1 36.3 25.8 36 25.6 L 36 25.6 L 36 25.6 Z  M 34.6 37.4 L 32.6 37.4 L 32.6 30 L 34.6 28.5 L 34.6 37.4 L 34.6 37.4 Z " fill="rgb(255,255,0)"/><path d=" M 15.8 39.4 L 19.8 39.4 C 20.4 39.4 20.8 39 20.8 38.4 L 20.8 29.5 C 20.8 29.2 20.7 28.9 20.4 28.7 L 16.4 25.7 C 16.1 25.5 15.7 25.4 15.4 25.6 C 15 25.8 14.8 26.1 14.8 26.5 L 14.8 38.4 C 14.8 39 15.2 39.4 15.8 39.4 L 15.8 39.4 L 15.8 39.4 Z  M 16.8 28.5 L 18.8 30 L 18.8 37.4 L 16.8 37.4 L 16.8 28.5 L 16.8 28.5 Z " fill="rgb(255,255,0)"/></g></svg>