<?xml version="1.0" standalone="no"?><!-- Generator: Gravit.io --><svg xmlns="http://www.w3.org/2000/svg" xmlns:xlink="http://www.w3.org/1999/xlink" style="isolation:isolate" viewBox="0 0 66 48.4" width="66" height="48.4"><defs><clipPath id="_clipPath_LI1zraPI52dM1mCGF1zhqFxVJBRXTOHz"><rect width="66" height="48.4"/></clipPath></defs><g clip-path="url(#_clipPath_LI1zraPI52dM1mCGF1zhqFxVJBRXTOHz)"><path d=" M 33 0 C 19.7 0 8.8 10.9 8.8 24.2 C 8.8 37.5 19.7 48.4 33 48.4 C 46.3 48.4 57.2 37.5 57.2 24.2 C 57.2 10.9 46.3 0 33 0 L 33 0 L 33 0 Z  M 33 46.2 C 20.9 46.2 11 36.3 11 24.2 C 11 12.1 20.9 2.2 33 2.2 C 45.1 2.2 55 12.1 55 24.2 C 55 36.3 45.1 46.2 33 46.2 L 33 46.2 L 33 46.2 Z " fill="rgb(185,185,185)"/><path d=" M 11.2 2.4 C 11.6 2 11.6 1.3 11.2 0.9 C 10.8 0.5 10.1 0.5 9.7 0.9 C -3.2 13.8 -3.2 34.7 9.7 47.6 C 9.9 47.8 10.1 47.9 10.5 47.9 C 10.8 47.9 11.1 47.8 11.3 47.6 C 11.7 47.2 11.7 46.5 11.3 46.1 C -0.8 34 -0.8 14.4 11.2 2.4 L 11.2 2.4 L 11.2 2.4 Z " fill="rgb(185,185,185)"/><path d=" M 56.3 0.9 C 55.9 0.5 55.2 0.5 54.8 0.9 C 54.4 1.3 54.4 2 54.8 2.4 C 66.8 14.4 66.8 34 54.8 46 C 54.4 46.4 54.4 47.1 54.8 47.5 C 55 47.7 55.2 47.8 55.6 47.8 C 55.9 47.8 56.2 47.7 56.4 47.5 C 69.2 34.7 69.2 13.8 56.3 0.9 L 56.3 0.9 L 56.3 0.9 Z " fill="rgb(185,185,185)"/><path d=" M 33 30.8 C 34.9 30.8 36.3 29.4 36.3 27.5 L 36.3 8.8 C 36.3 6.9 34.9 5.5 33 5.5 C 31.1 5.5 29.7 6.9 29.7 8.8 L 29.7 27.5 C 29.7 29.4 31.1 30.8 33 30.8 L 33 30.8 L 33 30.8 Z  M 31.9 8.8 C 31.9 8.1 32.3 7.7 33 7.7 C 33.7 7.7 34.1 8.1 34.1 8.8 L 34.1 27.5 C 34.1 28.2 33.7 28.6 33 28.6 C 32.3 28.6 31.9 28.2 31.9 27.5 L 31.9 8.8 L 31.9 8.8 Z " fill="rgb(185,185,185)"/><path d=" M 33 34.1 C 30.6 34.1 28.6 36.1 28.6 38.5 C 28.6 40.9 30.6 42.9 33 42.9 C 35.4 42.9 37.4 40.9 37.4 38.5 C 37.4 36.1 35.4 34.1 33 34.1 L 33 34.1 L 33 34.1 Z  M 33 40.7 C 31.8 40.7 30.8 39.7 30.8 38.5 C 30.8 37.3 31.8 36.3 33 36.3 C 34.2 36.3 35.2 37.3 35.2 38.5 C 35.2 39.7 34.2 40.7 33 40.7 L 33 40.7 L 33 40.7 Z " fill="rgb(185,185,185)"/></g></svg>