<?xml version="1.0" standalone="no"?><!-- Generator: Gravit.io --><svg xmlns="http://www.w3.org/2000/svg" xmlns:xlink="http://www.w3.org/1999/xlink" style="isolation:isolate" viewBox="0 0 54.4 58.6" width="54.4" height="58.6"><defs><clipPath id="_clipPath_zrIfjKGEJdpObXLNizPL9llHaVO5ldbF"><rect width="54.4" height="58.6"/></clipPath></defs><g clip-path="url(#_clipPath_zrIfjKGEJdpObXLNizPL9llHaVO5ldbF)"><path d=" M 53.8 40.7 C 50.5 39.3 47 38.2 43.5 37.4 C 43 30.9 40.3 25.1 36.2 21.6 L 44.5 13.3 C 44.7 13.1 44.8 12.9 44.8 12.6 C 44.8 12.3 44.7 12.1 44.5 11.9 L 41.6 9 C 41.2 8.6 40.6 8.6 40.2 9 L 31.4 17.8 C 31.3 17.5 31.3 17.2 31.3 17 L 31.3 15.3 C 33.7 13.9 35.3 11.3 35.3 8.3 C 35.3 8.3 35.3 8.2 35.3 8.2 C 35.3 8.2 35.3 8.1 35.3 8.1 C 35.3 3.7 31.7 0 27.2 0 C 22.8 0 19.1 3.6 19.1 8.1 C 19.1 8.1 19.1 8.2 19.1 8.2 C 19.1 8.2 19.1 8.3 19.1 8.3 C 19.1 11.1 20.7 13.9 23.1 15.3 L 23.1 17 C 23.1 18.1 22.4 19.2 21.3 19.7 C 15.6 22.5 11.7 29.4 11 37.2 C 7.3 38.1 3.7 39.3 0.5 40.8 C 0.3 40.9 0 41.2 0 41.6 C 0 42 0.1 42.3 0.4 42.5 L 4.4 45.2 C 4.7 45.4 5 45.4 5.3 45.3 C 7.3 44.6 9.2 44.1 11.1 43.6 C 11.2 49.3 12.3 54.4 14.2 58.1 C 14.4 58.4 14.7 58.6 15.1 58.6 L 20.1 58.6 C 20.4 58.6 20.9 58.4 21 58.1 C 21.1 57.8 21.2 57.4 21 57.1 C 19.8 54.8 19.2 51.4 19.1 47.3 C 24.3 46.3 30.1 46.3 35.3 47.3 C 35.2 51.4 34.6 54.8 33.4 57.1 C 33.2 57.4 33.2 57.8 33.4 58.1 C 33.6 58.4 34 58.6 34.3 58.6 L 39.3 58.6 C 39.7 58.6 40 58.4 40.1 58.1 C 42 54.4 43.1 49.3 43.2 43.6 C 45.1 44.1 47.1 44.7 49.1 45.4 C 49.2 45.5 49.3 45.5 49.4 45.5 C 49.6 45.5 49.8 45.4 49.9 45.2 L 53.9 42.5 C 54.2 42.3 54.3 42 54.3 41.6 C 54.4 41.2 54.1 40.8 53.8 40.7 L 53.8 40.7 L 53.8 40.7 Z  M 41.3 36.8 C 37.2 35.9 32.9 35.4 28.8 35.3 C 26.7 35.2 24.5 35.2 22.4 35.4 L 34.7 23.1 C 38.4 26.1 40.8 31.2 41.3 36.8 L 41.3 36.8 L 41.3 36.8 Z  M 24.6 13.5 C 24.6 13.5 24.6 13.5 24.6 13.5 C 24.5 13.4 24.4 13.4 24.3 13.3 C 22.6 12.4 21.4 10.6 21.2 8.6 C 21.2 8.6 21.2 8.6 21.2 8.6 C 21.2 8.5 21.2 8.4 21.2 8.3 C 21.2 8.3 21.2 8.3 21.2 8.2 C 21.2 8.1 21.2 8 21.2 7.9 C 21.2 4.6 23.9 1.8 27.3 1.8 C 30.6 1.8 33.4 4.5 33.3 7.9 C 33.3 10.2 32 12.3 29.9 13.4 C 29.8 13.4 29.7 13.5 29.7 13.6 C 29 13.9 28.2 14 27.4 14 C 26.3 14.1 25.4 13.9 24.6 13.5 L 24.6 13.5 L 24.6 13.5 Z  M 22.3 21.3 C 24.1 20.4 25.2 18.7 25.2 16.8 L 25.2 15.9 C 25.8 16.1 26.5 16.2 27.2 16.2 C 27.9 16.2 28.5 16.1 29.1 16 L 29.1 16.8 C 29.1 17.6 29.4 18.5 29.8 19.2 L 13.3 35.7 C 14.2 29.2 17.7 23.6 22.3 21.3 L 22.3 21.3 L 22.3 21.3 Z  M 38.8 56.5 L 35.9 56.5 C 36.9 53.9 37.4 50.4 37.4 46.4 C 37.4 45.9 37.1 45.5 36.6 45.4 C 30.7 44.1 24 44.1 18 45.4 C 17.5 45.5 17.2 45.9 17.2 46.4 C 17.2 50.4 17.7 53.9 18.7 56.5 L 15.8 56.5 C 14.2 53.1 13.3 48.4 13.2 43.2 C 13.6 43.1 13.9 43 14.3 42.9 C 23 41 30.9 41 39.6 42.8 C 40.2 42.9 40.8 43.1 41.4 43.2 C 41.3 48.5 40.4 53.1 38.8 56.5 L 38.8 56.5 L 38.8 56.5 Z  M 49.4 43.3 C 42.2 41 35.9 39.7 29.6 39.4 C 24.4 39.2 19.2 39.6 13.7 40.9 C 13.1 41.1 12.4 41.2 11.8 41.4 C 11.8 41.4 11.8 41.4 11.8 41.4 C 9.7 41.9 7.5 42.6 5.3 43.3 L 3.2 41.9 C 6 40.7 9.2 39.7 12.4 39 C 12.4 39 12.4 39 12.5 39.1 C 12.6 39 12.7 39 12.8 39 C 12.8 39 12.8 39 12.9 38.9 C 13 38.9 13.1 38.9 13.1 38.8 C 13.3 38.7 13.5 38.6 13.6 38.5 L 32 20.2 C 32.1 20.1 32.2 20 32.2 19.9 L 41 11.1 L 42.4 12.5 L 18.9 36 C 18.6 36.3 18.5 36.7 18.7 37.1 C 18.9 37.5 19.3 37.7 19.7 37.7 C 19.7 37.7 19.7 37.7 19.7 37.7 C 19.7 37.7 19.7 37.7 19.8 37.7 C 24.2 37.3 28.7 37.3 33.2 37.7 C 35.8 37.9 38.4 38.3 41 38.9 C 41.4 39 41.8 39.1 42.2 39.2 L 42.2 39.2 C 45.3 39.9 48.4 40.8 51.3 41.9 L 49.4 43.3 L 49.4 43.3 Z " fill="rgb(255,255,0)"/></g></svg>