<?xml version="1.0" encoding="utf-8"?>
<!-- Generator: Adobe Illustrator 21.0.0, SVG Export Plug-In . SVG Version: 6.00 Build 0)  -->
<!DOCTYPE svg PUBLIC "-//W3C//DTD SVG 1.1//EN" "http://www.w3.org/Graphics/SVG/1.1/DTD/svg11.dtd" [
	<!ENTITY ns_extend "http://ns.adobe.com/Extensibility/1.0/">
	<!ENTITY ns_ai "http://ns.adobe.com/AdobeIllustrator/10.0/">
	<!ENTITY ns_graphs "http://ns.adobe.com/Graphs/1.0/">
	<!ENTITY ns_vars "http://ns.adobe.com/Variables/1.0/">
	<!ENTITY ns_imrep "http://ns.adobe.com/ImageReplacement/1.0/">
	<!ENTITY ns_sfw "http://ns.adobe.com/SaveForWeb/1.0/">
	<!ENTITY ns_custom "http://ns.adobe.com/GenericCustomNamespace/1.0/">
	<!ENTITY ns_adobe_xpath "http://ns.adobe.com/XPath/1.0/">
]>
<svg version="1.1" id="Layer_1" xmlns:x="&ns_extend;" xmlns:i="&ns_ai;" xmlns:graph="&ns_graphs;"
	 xmlns="http://www.w3.org/2000/svg" xmlns:xlink="http://www.w3.org/1999/xlink" x="0px" y="0px" viewBox="0 0 215 215"
	 style="enable-background:new 0 0 215 215;" xml:space="preserve">
<style type="text/css">
	.st0{fill:#525252;}
</style>
<switch>
	<g i:extraneous="self">
		<g>
			<path class="st0" d="M113.8,150.3h4.2v15.3h9.5v3.8h-13.7V150.3z"/>
			<path class="st0" d="M130.9,150.3h4.2v19.1h-4.2V150.3z"/>
			<path class="st0" d="M139.9,150.3h3.9l9,11.8v-11.8h4.2v19.1h-3.6l-9.3-12.2v12.2h-4.2V150.3z"/>
			<path class="st0" d="M169.4,169.7c-2.6,0-4.6-0.7-6.1-2.1c-1.5-1.4-2.2-3.5-2.2-6.4v-10.9h4.2v10.8c0,1.6,0.4,2.7,1.1,3.5
				c0.7,0.8,1.7,1.2,3,1.2c1.3,0,2.3-0.4,3-1.1c0.7-0.8,1.1-1.9,1.1-3.4v-11h4.2v10.8c0,1.5-0.2,2.7-0.6,3.8c-0.4,1.1-1,2-1.7,2.7
				c-0.7,0.7-1.6,1.3-2.7,1.6C171.9,169.5,170.7,169.7,169.4,169.7z"/>
			<path class="st0" d="M187.3,159.7l-6.4-9.4h4.9l4,6.2l4-6.2h4.8l-6.4,9.3l6.7,9.8H194l-4.3-6.6l-4.3,6.6h-4.8L187.3,159.7z"/>
			<path class="st0" d="M24.6,126.9h2l8.4,18.6h-2.2l-2.2-4.9H20.5l-2.2,4.9h-2.1L24.6,126.9z M29.7,138.7l-4.2-9.4l-4.2,9.4H29.7z"
				/>
			<path class="st0" d="M37.7,137.7V127h2.1v10.6c0,4,2.1,6.2,5.6,6.2c3.4,0,5.6-2.1,5.6-6.1V127H53v10.6c0,5.4-3.1,8.2-7.7,8.2
				C40.8,145.7,37.7,142.9,37.7,137.7z"/>
			<path class="st0" d="M62.9,128.9h-6.2V127h14.5v1.9H65v16.5h-2.1V128.9z"/>
			<path class="st0" d="M73,136.3L73,136.3c0-5.1,3.8-9.6,9.4-9.6c5.6,0,9.4,4.4,9.4,9.5c0,0,0,0,0,0.1c0,5.1-3.8,9.5-9.4,9.5
				C76.8,145.8,73,141.4,73,136.3z M89.7,136.3L89.7,136.3c0-4.2-3.1-7.7-7.3-7.7c-4.2,0-7.2,3.4-7.2,7.6v0.1c0,4.2,3.1,7.6,7.3,7.6
				C86.6,143.8,89.7,140.5,89.7,136.3z"/>
			<path class="st0" d="M96.2,127h2.1l6.7,10.1l6.7-10.1h2.1v18.5h-2.1v-15l-6.7,9.9H105l-6.7-9.9v14.9h-2V127z"/>
			<path class="st0" d="M145.2,128.9H139V127h14.5v1.9h-6.2v16.5h-2.1V128.9z"/>
			<path class="st0" d="M157.6,127h2.1v18.5h-2.1V127z"/>
			<path class="st0" d="M163.5,127h2.3l6.6,15.9L179,127h2.2l-7.9,18.6h-1.8L163.5,127z"/>
			<path class="st0" d="M184.8,127h13.3v1.9h-11.3v6.3H197v1.9h-10.1v6.5h11.4v1.9h-13.5V127z"/>
			<rect x="105.6" y="55.1" class="st0" width="3.8" height="16.8"/>
			
				<rect x="69.3" y="69.6" transform="matrix(0.707 -0.7072 0.7072 0.707 -34.2747 73.1702)" class="st0" width="3.8" height="16.8"/>
			<rect x="155.1" y="104.5" class="st0" width="16.8" height="3.8"/>
			<rect x="47.4" y="104.5" class="st0" width="16.8" height="3.8"/>
			<path class="st0" d="M43.7,113.9c2.1-34.7,31-62.4,66.2-62.4c35.2,0,64.2,27.6,66.2,62.4h6.4c-2.1-38.3-33.8-68.8-72.6-68.8
				s-70.5,30.5-72.6,68.8H43.7z"/>
			<circle class="st0" cx="107.5" cy="114.9" r="6.7"/>
			
				<rect x="107.1" y="88.5" transform="matrix(0.7071 -0.7071 0.7071 0.7071 -24.9453 120.6025)" class="st0" width="52" height="3.8"/>
			<rect x="86.9" y="78" class="st0" width="9.2" height="9.2"/>
			<rect x="97.6" y="78" class="st0" width="9.2" height="9.2"/>
			<rect x="108.3" y="78" class="st0" width="9.2" height="9.2"/>
			<rect x="118.9" y="78" class="st0" width="9.2" height="9.2"/>
			<g>
				<g>
					<path class="st0" d="M35.1,153.7l-1.5,1.4c-1.1-1-2.2-1.8-3.5-2.4c-1.3-0.5-2.5-0.8-3.7-0.8c-1.5,0-2.9,0.4-4.2,1.1
						c-1.3,0.7-2.4,1.7-3.1,3c-0.7,1.2-1.1,2.6-1.1,4c0,1.4,0.4,2.8,1.1,4.1c0.8,1.3,1.8,2.3,3.2,3c1.3,0.7,2.8,1.1,4.4,1.1
						c1.9,0,3.6-0.5,4.9-1.6c1.3-1.1,2.1-2.5,2.4-4.3h-6v-1.8h8.2c0,2.9-0.9,5.2-2.6,7c-1.7,1.7-4,2.6-6.9,2.6
						c-3.5,0-6.3-1.2-8.3-3.6c-1.6-1.8-2.4-4-2.4-6.4c0-1.8,0.5-3.5,1.4-5c0.9-1.5,2.1-2.8,3.7-3.6c1.6-0.9,3.3-1.3,5.3-1.3
						c1.6,0,3.1,0.3,4.5,0.9C32.4,151.5,33.8,152.4,35.1,153.7z"/>
					<path class="st0" d="M39.9,150.5h3.8c2.1,0,3.5,0.1,4.3,0.3c1.1,0.3,2,0.8,2.7,1.7c0.7,0.8,1.1,1.9,1.1,3.1
						c0,1-0.2,1.9-0.7,2.7c-0.5,0.8-1.2,1.4-2.1,1.8c-0.9,0.4-2.1,0.6-3.7,0.6l6.8,8.8h-2.3l-6.8-8.8h-1.1v8.8h-1.9V150.5z
						 M41.8,152.3v6.4l3.3,0c1.3,0,2.2-0.1,2.8-0.4c0.6-0.2,1.1-0.6,1.4-1.2c0.3-0.5,0.5-1.1,0.5-1.8c0-0.6-0.2-1.2-0.5-1.7
						s-0.8-0.9-1.4-1.1c-0.6-0.2-1.5-0.3-2.8-0.3H41.8z"/>
					<path class="st0" d="M63.6,150.5l8.8,18.9h-2l-3-6.2h-8.2l-2.9,6.2h-2.1l8.9-18.9H63.6z M63.3,154.5l-3.2,6.9h6.5L63.3,154.5z"
						/>
					<path class="st0" d="M75.3,169.4v-18.9h3.9c2.8,0,4.9,0.2,6.2,0.7c1.8,0.6,3.3,1.8,4.3,3.3c1,1.6,1.6,3.5,1.6,5.7
						c0,1.9-0.4,3.6-1.2,5c-0.8,1.4-1.9,2.5-3.2,3.2c-1.3,0.7-3.1,1-5.5,1H75.3z M77.1,167.6h2.2c2.6,0,4.4-0.2,5.4-0.5
						c1.4-0.5,2.5-1.3,3.4-2.5c0.8-1.2,1.2-2.7,1.2-4.4c0-1.8-0.4-3.4-1.3-4.7c-0.9-1.3-2.1-2.2-3.7-2.7c-1.2-0.4-3.1-0.5-5.9-0.5
						h-1.3V167.6z"/>
					<path class="st0" d="M95,150.5h10.9v1.9h-9v5.9h8.9v1.9h-8.9v7.4h8.9v1.9H95V150.5z"/>
				</g>
			</g>
			<g>
				<polygon class="st0" points="121.4,141.8 121.4,134.4 117.7,134.4 117.7,145.4 128.7,145.4 128.7,141.8 				"/>
				<polygon class="st0" points="136.1,127 117.7,127 117.7,132.6 121.4,132.6 121.4,130.7 132.4,130.7 132.4,141.8 130.6,141.8 
					130.6,145.4 136.1,145.4 				"/>
			</g>
		</g>
	</g>
</switch>
</svg>
